<svg id="Capa_1" data-name="Capa 1" xmlns="http://www.w3.org/2000/svg" viewBox="0 0 604.73 559.31"><defs><style>.cls-1{fill:#f4f4f5;}.cls-2{font-size:146.62px;fill:none;stroke:#f4f4f5;stroke-miterlimit:10;stroke-width:9px;font-family:MyriadPro-Regular, Myriad Pro;}</style></defs><title>A&amp;amp;L-logo</title><path class="cls-1" d="M801.64,982.7A134.72,134.72,0,0,1,786.79,1037a139.68,139.68,0,0,1-34.24,42.53A154.12,154.12,0,0,1,706.83,1106a156,156,0,0,1-51.08,9.75,141.6,141.6,0,0,1-51.56-8.59,144.57,144.57,0,0,1-79.07-70.37A145.77,145.77,0,0,1,546.66,873.6a148.46,148.46,0,0,1,48.94-36.09,151.24,151.24,0,0,1,60.15-13.61,140.32,140.32,0,0,1,109.54,49.25,151.73,151.73,0,0,1,29,52.14A158.21,158.21,0,0,1,801.64,982.7Zm-41.28,0a93.4,93.4,0,0,0-11.7-38.49,98.24,98.24,0,0,0-25.3-29.15A113.84,113.84,0,0,0,691,897.49a116.54,116.54,0,0,0-35.26-6.59A100.47,100.47,0,0,0,620,896.34a103.25,103.25,0,0,0-32.32,18.27,104.56,104.56,0,0,0-24.44,29.77,102.74,102.74,0,0,0-12.11,38.32,104.46,104.46,0,0,0,24.71,79.92,107.35,107.35,0,0,0,35.57,27.14,109.85,109.85,0,0,0,44.33,10.46,99.73,99.73,0,0,0,80.34-37.15,109.88,109.88,0,0,0,20.08-38.77A116.9,116.9,0,0,0,760.36,982.7Z" transform="translate(-347.77 -556.5)"/><path class="cls-1" d="M347.77,971.65c4.07-7.73,7.85-15.56,11.54-23.43s7.26-15.77,10.78-23.69c7-15.86,13.61-31.84,20-47.89q19.17-48.2,35.7-97.28t30.74-99c4.65-16.65,9.12-33.37,13.22-50.2,2-8.43,4-16.87,5.87-25.36s3.63-17,5.12-25.6l3.94-22.75h76.15l3.45,23c1.66,11.11,3.86,22,6.2,32.94s4.94,21.69,7.64,32.46q8.19,32.28,18.06,64c3.24,10.59,6.68,21.12,10.15,31.63s7.34,20.9,11.48,31.19,8.6,20.48,13.48,30.53c2.49,5,5,10,7.71,14.94s5.52,9.84,8.7,14.62L692.45,899l-76.72-23.17a194.39,194.39,0,0,0-21.15-4.89c-7.05-1.26-14.11-2.32-21.16-3.13-14.11-1.65-28.22-2.5-42.34-2.79a339.13,339.13,0,0,0-42.37,1.51c-7.06.71-14.12,1.68-21.19,3q-5.29,1-10.6,2.26c-3.54.87-7.07,1.83-10.61,3.07l.38-67c3.52,1.29,7.05,2.28,10.57,3.19s7.05,1.69,10.58,2.38c7.05,1.41,14.1,2.46,21.16,3.26a340.87,340.87,0,0,0,42.34,2c14.12-.13,28.24-.82,42.37-2.31,7.06-.73,14.13-1.71,21.2-2.89a194.34,194.34,0,0,0,21.2-4.65l-32,44c-.29-5.74-1-11.34-1.73-16.92s-1.72-11.1-2.72-16.6c-2.06-11-4.55-21.82-7.37-32.55s-5.95-21.36-9.37-31.89-7-21-10.71-31.44q-11.06-31.33-23.64-62.16c-4.27-10.25-8.6-20.48-13.22-30.61s-9.37-20.23-14.66-30.14l31.81,23h-20l31.73-22.75c-4.05,7.75-7.82,15.58-11.51,23.45S525.48,640,522,647.9c-7,15.86-13.6,31.84-20,47.89Q482.79,744,466.18,793T435.38,892c-4.67,16.65-9.13,33.37-13.22,50.21-2,8.43-4,16.87-5.85,25.36s-3.61,17-5.08,25.62Z" transform="translate(-347.77 -556.5)"/><path class="cls-1" d="M783,565c-2.7,27.9-4.23,55.8-5.51,83.69s-2,55.8-2.44,83.7c-.19,13.94-.36,27.89-.38,41.84,0,7-.07,13.95,0,20.92,0,3.49.08,7,.17,10.47s.12,7,.26,10.46c.44,13.95,1.22,27.9,2.45,41.84.59,7,1.36,14,2.21,20.93s1.89,13.95,3.25,20.92H716c1.36-7,2.36-13.95,3.25-20.92s1.62-14,2.21-20.93c1.23-13.94,2-27.89,2.45-41.84.14-3.49.18-7,.26-10.46s.14-7,.17-10.47c.06-7,0-13.94,0-20.92,0-14-.19-27.9-.38-41.84q-.63-41.85-2.44-83.7C720.23,620.8,718.7,592.9,716,565Z" transform="translate(-347.77 -556.5)"/><path class="cls-1" d="M952.5,989.14a178.83,178.83,0,0,0-20.87-5.46c-3.48-.74-7-1.34-10.44-2s-7-1.11-10.44-1.57A396.47,396.47,0,0,0,869,976.88c-7-.17-13.92-.25-20.87,0s-13.92.75-20.88,1.64a187.81,187.81,0,0,0-20.87,3.77,118.84,118.84,0,0,0-20.88,6.88v-67A118.9,118.9,0,0,0,806.38,929a187.81,187.81,0,0,0,20.87,3.77c7,.89,13.92,1.39,20.88,1.64s13.91.14,20.87,0a399.15,399.15,0,0,0,41.75-3.26c3.48-.46,7-1,10.44-1.58s7-1.22,10.44-2a174.94,174.94,0,0,0,20.87-5.46Z" transform="translate(-347.77 -556.5)"/><text class="cls-2" transform="translate(221.89 483.85) scale(1.51 1)">&amp;</text></svg>